<?xml version="1.0" encoding="UTF-8"?>
<!DOCTYPE svg PUBLIC "-//W3C//DTD SVG 1.1//EN" "http://www.w3.org/Graphics/SVG/1.1/DTD/svg11.dtd">
<!-- Creator: CorelDRAW -->
<svg xmlns="http://www.w3.org/2000/svg" xml:space="preserve" width="11976px" height="1810px" version="1.1" style="shape-rendering:geometricPrecision; text-rendering:geometricPrecision; image-rendering:optimizeQuality; fill-rule:evenodd; clip-rule:evenodd"
viewBox="0 0 11974.32 1809.46"
 xmlns:xlink="http://www.w3.org/1999/xlink"
 xmlns:xodm="http://www.corel.com/coreldraw/odm/2003">
 <defs>
  <style type="text/css">
   <![CDATA[
    .fil0 {fill:#33CC66;fill-rule:nonzero}
   ]]>
  </style>
 </defs>
 <g id="Слой_x0020_1">
  <metadata id="CorelCorpID_0Corel-Layer"/>
  <path class="fil0" d="M4474.13 440.69c-77.18,-6.49 -150.97,-4.43 -202.18,67.45 -48.5,68.06 -27.89,150.32 15.39,205.93 84.75,108.97 207.05,85.51 350.59,129.08 20.02,6.08 38.6,10.59 39.42,30.39 -19.12,29.66 -74.39,-1.5 -99.79,-10.99 -99.43,-37.2 -226.13,-82.33 -331.04,-39.26 -112.14,45.91 -151.53,176.85 -90.87,259.52 49.49,67.48 97.28,51.02 103.18,98.31 6.4,51.81 15.15,119.57 46.16,158.32 58.92,73.65 211.12,41.13 263.08,-63.89 46.72,-94.59 7.27,-197.94 74.92,-265.57 9.59,-9.65 21.21,-27.49 40.82,-22.11 9.62,29.09 -8.81,66.29 -18.49,93.5 -10.21,28.73 -20.71,57.99 -30.58,86.5 -51.02,148.19 -80.22,190.07 -168.6,305.49 -27.42,35.76 -76.27,93.98 -88.32,150.69 35.53,-2.5 51.46,2.96 82.19,4.43 21.74,-116.01 104.91,-188.25 158.87,-304.86 25.16,-54.47 44.65,-109.15 62.26,-169.3 8.88,-30.21 17.32,-60.03 25.87,-91.36 7.39,-27.44 11.33,-39.47 23.42,-63.73 4.97,-10.02 5.06,-12.49 15.87,-13.62 21.17,53.19 -34.23,122.59 -62.68,201.18 -29.8,82.36 -36.2,140.48 -8.16,226.33 40.01,122.39 197.39,103.1 271.26,42.22 27.43,-22.54 38.17,-39.72 55.5,-80.04 38.86,-2.06 79.64,-11.59 112.18,-24.83 121.7,-49.61 153.43,-163.73 83.69,-261.05 -138.28,-192.97 -377.47,-123.23 -383.03,-172.29 6.19,-37.7 68.67,-25.96 98.88,-14.93 33.88,12.46 64.79,26.87 98.59,40.39 68.46,27.42 148.71,53.14 223.26,19.76 146.84,-65.74 125.76,-257.99 -31.39,-328.9 -14.15,-102.85 -1.37,-152.2 -73.16,-204.62 -27.7,-20.25 -69.45,-32.02 -111.13,-25.08 -96.68,16.14 -162.89,138.68 -191.64,230.27 -11.07,35.17 -19.66,74.08 -27.84,111.06 -6.92,31.05 -19.71,92.63 -52.3,85.83 -8.69,-32.23 17.92,-75.14 29.72,-102.81 40.32,-94.56 71.4,-250.15 24.15,-340.85 -36.64,-70.3 -114.5,-95.28 -188.6,-82.29 -71.96,12.66 -122.29,70.05 -139.47,135.73zm-2713.62 -417.33c0,293.91 0,587.88 0,881.52 0,293.72 0,587.78 0,881.4 -147.11,0 -293.65,0 -440.11,0 0,-118.86 0,-237.74 0,-356.61 0,-118.89 0,-237.79 0,-356.83 -293.65,0 -587.28,0 -880.27,0 0,119.04 0,237.94 0,356.83 0,118.87 0,237.75 0,356.61 -147.1,0 -293.62,0 -440.13,0 0,-293.62 0,-587.68 0,-881.4 0,-293.64 0,-587.61 0,-881.52 146.51,0 293.03,0 440.13,0 0,118.17 0,236.32 0,354.31 0,117.95 0,235.94 0,353.92 292.99,0 586.62,0 880.27,0 0,-117.98 0,-235.97 0,-353.92 0,-117.99 0,-236.14 0,-354.31 146.46,0 293,0 440.11,0zm8276.97 1439.7c117.39,-146.44 201.99,-288.62 253.74,-426.5 58.69,-158.52 88.07,-346.34 88.07,-563.48l0 -449.8 1398.25 0 0 1439.78 196.78 0 0 323.13c-687.91,0 -1375.82,0 -2063.7,0l0 -323.13 126.86 0zm1299.84 -1116.65l-533.4 0 0 211.92c0,181.01 -24.14,347.72 -72.48,500.2 -48.34,152.54 -121.68,287.39 -220.12,404.53l826 0 0 -1116.65zm-1694.42 1116.65l0 323.13 -1302.48 0 0 -1762.91 1284.33 0 0 323.13 -844.1 0 0 369.66 805.29 0 0 323.07 -805.29 0 0 423.92 862.25 0zm-2648.94 -785.8l567.1 -653.98 383.19 0 0 1762.91 -440.18 0 0 -1101.19 -476.45 553.17 -67.29 0 -476.44 -553.17 0 1101.19 -440.18 0 0 -1762.91 383.21 0 567.04 653.98zm-3532.14 785.9c0,107.8 0,215.5 0,323.12 -434.38,0 -868.74,0 -1302.59,0 0,-293.62 0,-587.68 0,-881.4 0,-293.64 0,-587.61 0,-881.52 428.06,0 856.14,0 1284.23,0 0,107.84 0,215.52 0,323.2 -281.58,0 -563.14,0 -844.08,0 0,123.21 0,246.44 0,369.64 268.32,0 536.65,0 805.56,0 0,107.65 0,215.33 0,322.94 -268.91,0 -537.24,0 -805.56,0 0,141.38 0,282.66 0,424.02 287.28,0 574.56,0 862.44,0zm1273.42 -1463.16c499.65,0 904.7,405.05 904.7,904.73 0,499.67 -405.05,904.73 -904.7,904.73 -499.67,0 -904.73,-405.06 -904.73,-904.73 0,-499.68 405.06,-904.73 904.73,-904.73z"/>
 </g>
</svg>
